<?xml version="1.0" standalone="no"?>
<!DOCTYPE svg PUBLIC "-//W3C//DTD SVG 20010904//EN"
 "http://www.w3.org/TR/2001/REC-SVG-20010904/DTD/svg10.dtd">
<svg version="1.0" xmlns="http://www.w3.org/2000/svg"
 width="200.000000pt" height="203.000000pt" viewBox="0 0 200.000000 203.000000"
 preserveAspectRatio="xMidYMid meet">

<g transform="translate(0.000000,203.000000) scale(0.100000,-0.100000)"
fill="#000000" stroke="none">
<path d="M890 1992 c0 -4 -28 -14 -61 -21 -156 -32 -332 -119 -454 -224 -33
-28 -54 -44 -46 -34 8 10 9 17 3 17 -11 0 -115 -121 -134 -155 -10 -18 -10
-19 7 -5 17 14 17 14 5 -7 -8 -12 -17 -20 -21 -17 -4 2 -11 -1 -15 -7 -5 -8
-3 -9 6 -4 7 4 11 4 8 -1 -110 -227 -126 -283 -149 -512 -9 -96 -8 -125 6
-193 49 -242 181 -454 375 -601 84 -64 242 -141 350 -170 119 -31 367 -32 482
0 181 49 327 132 453 257 398 392 390 1037 -17 1420 -135 127 -299 212 -481
251 -72 15 -317 20 -317 6z m132 -126 c15 -38 28 -71 28 -73 0 -11 -32 -1 -36
12 -9 23 -61 19 -69 -5 -3 -11 -13 -20 -22 -20 -8 0 -13 6 -11 13 3 6 13 37
22 67 10 30 19 61 22 68 10 31 39 4 66 -62z m-143 -15 c10 -62 8 -81 -8 -81
-11 0 -34 137 -26 150 12 19 22 -2 34 -69z m358 53 c12 -7 24 -21 27 -31 9
-29 -8 -75 -35 -95 -21 -15 -30 -16 -67 -6 -28 7 -41 15 -38 23 2 7 10 40 17
73 l11 61 32 -6 c17 -3 41 -12 53 -19z m-455 -15 c16 -9 18 -13 7 -20 -7 -4
-19 -3 -26 2 -17 15 -51 2 -58 -22 -16 -51 25 -101 65 -79 27 14 25 38 -2 42
-22 4 -22 5 5 18 33 16 44 8 53 -40 6 -30 5 -33 -7 -23 -12 10 -17 8 -27 -8
-22 -35 -84 -23 -107 22 -21 40 -19 66 10 94 26 27 54 31 87 14z m603 -29 c25
-11 44 -24 40 -30 -4 -6 -19 -4 -42 5 -43 18 -40 18 -47 0 -4 -11 5 -21 29
-32 39 -19 48 -39 13 -28 -68 21 -94 -9 -33 -38 32 -15 52 -46 23 -34 -82 32
-98 41 -95 51 35 87 53 126 59 126 3 0 27 -9 53 -20z m-754 -59 c56 -56 28
-133 -48 -133 -64 0 -97 102 -47 141 36 28 60 26 95 -8z m954 -64 c41 -36 43
-64 6 -74 -12 -3 -17 -11 -14 -19 7 -20 -15 -44 -41 -44 -12 0 -37 13 -56 29
l-34 28 43 57 c24 31 47 56 51 56 3 0 24 -15 45 -33z m-528 -53 c4 -11 14 -14
33 -11 19 4 27 2 27 -9 0 -16 -44 -19 -67 -4 -8 5 -11 10 -6 10 5 0 3 7 -4 15
-9 11 -9 15 -1 15 6 0 14 -7 18 -16z m-621 -38 l37 -45 33 25 c46 35 52 12 7
-25 -21 -17 -40 -31 -43 -31 -12 0 -99 108 -93 114 12 12 23 5 59 -38z m551
28 c0 -9 -12 -18 -29 -21 -15 -3 -28 -12 -28 -19 0 -8 -3 -14 -8 -14 -4 0 -7
13 -7 29 -1 27 2 29 27 24 17 -3 28 -1 28 6 0 6 4 11 8 11 5 0 9 -7 9 -16z
m-257 2 c0 -2 -24 -17 -52 -34 -29 -16 -75 -46 -103 -66 l-50 -37 46 43 c25
24 70 55 100 70 59 30 59 30 59 24z m130 -8 c-17 -7 -20 -12 -11 -15 11 -5 11
-7 0 -14 -10 -6 -7 -10 11 -18 14 -5 18 -10 9 -10 -8 -1 -20 4 -26 10 -13 13
-52 -4 -43 -18 3 -4 -12 -17 -34 -28 -29 -15 -40 -17 -43 -8 -3 9 -10 10 -23
3 -11 -6 -17 -17 -14 -24 3 -8 0 -17 -7 -22 -9 -5 -10 -2 -6 9 3 10 2 17 -4
17 -6 0 -7 5 -4 10 3 6 -2 10 -13 10 -22 0 -57 -34 -48 -48 3 -5 -3 -17 -14
-27 -13 -12 -17 -21 -10 -25 15 -9 -39 -73 -56 -66 -19 7 -39 -21 -26 -37 15
-17 -23 -77 -49 -77 -21 0 -24 -12 -10 -39 6 -10 6 -23 0 -32 -7 -11 -9 -9 -9
8 0 12 -6 23 -12 25 -10 4 -10 10 -1 31 8 16 9 27 3 27 -14 0 -12 13 6 36 15
19 15 19 6 0 -7 -14 -6 -24 5 -34 12 -12 16 -12 33 3 20 18 29 61 10 50 -5 -3
-10 -1 -10 5 0 7 -7 9 -16 6 -9 -3 -12 -2 -9 5 4 6 13 8 21 5 16 -6 27 9 28
38 1 29 31 69 53 71 27 2 43 14 43 33 1 22 47 55 69 49 21 -5 54 10 46 22 -2
5 3 15 13 22 15 13 16 12 3 -3 -9 -13 -10 -18 -2 -18 7 0 10 -4 6 -9 -10 -16
12 -22 39 -10 34 16 30 55 -5 52 l-24 -2 23 11 c18 9 25 9 31 0 10 -17 38 -5
44 19 3 12 13 19 29 18 l23 0 -25 -11z m337 -7 c6 -24 34 -36 44 -19 7 10 17
9 46 -7 21 -11 38 -26 38 -33 0 -18 23 -30 48 -25 23 5 50 -18 72 -60 6 -12
18 -21 26 -19 23 3 73 -53 65 -74 -8 -20 11 -45 29 -38 18 7 62 -65 46 -75
-16 -10 -4 -38 20 -44 10 -3 19 -10 19 -17 0 -6 -5 -8 -12 -3 -20 12 -32 10
-45 -7 -8 -9 -12 -11 -13 -3 0 6 5 15 10 18 17 11 11 35 -9 35 -17 0 -61 54
-61 74 0 15 20 4 20 -11 1 -22 23 -53 39 -53 7 0 9 5 6 10 -3 6 -1 10 4 10 18
0 12 26 -9 45 -15 14 -20 15 -20 4 -1 -9 -9 -5 -22 11 -11 14 -26 24 -32 22
-7 -1 -25 12 -41 28 -22 23 -26 33 -17 39 9 6 8 12 -8 26 -11 10 -17 22 -14
27 9 14 -26 48 -48 48 -11 0 -16 -4 -13 -10 3 -5 2 -10 -4 -10 -20 0 1 -28 32
-44 18 -8 26 -16 19 -16 -23 0 -74 41 -68 56 3 8 -3 18 -14 24 -13 7 -20 6
-23 -3 -3 -9 -14 -7 -43 8 -22 11 -37 24 -36 29 6 16 -28 29 -43 16 -8 -6 -22
-10 -32 -7 -14 4 -12 5 6 6 16 1 21 6 18 15 -3 8 -1 17 6 19 7 3 1 9 -13 15
l-25 11 23 0 c16 1 26 -6 29 -18z m-212 -21 c3 -5 1 -10 -4 -10 -6 0 -11 5
-11 10 0 6 2 10 4 10 3 0 8 -4 11 -10z m75 0 c0 -5 -8 -10 -17 -10 -15 0 -16
2 -3 10 19 12 20 12 20 0z m55 -10 c3 -5 1 -10 -4 -10 -6 0 -11 5 -11 10 0 6
2 10 4 10 3 0 8 -4 11 -10z m600 -15 c33 -33 32 -70 -4 -106 -36 -36 -73 -37
-106 -4 -40 39 -31 79 25 118 34 23 57 21 85 -8z m-590 -30 c199 -42 369 -189
435 -378 31 -87 38 -240 16 -326 -53 -209 -215 -372 -421 -426 -76 -19 -210
-19 -288 1 -318 82 -505 421 -407 737 88 280 379 452 665 392z m-765 -51 c62
-45 55 -57 -29 -52 -34 1 -61 1 -61 -2 0 -3 18 -16 40 -30 22 -13 40 -30 40
-37 0 -19 -5 -17 -71 28 -33 22 -58 46 -56 52 3 8 27 11 73 9 l69 -3 -47 32
c-26 17 -45 36 -42 41 8 13 23 6 84 -38z m290 -29 c-7 -8 -20 -15 -29 -15 -11
0 -8 5 9 14 33 19 35 19 20 1z m1148 -17 c-4 -11 -62 -49 -93 -62 -6 -2 -3
-17 8 -36 11 -20 14 -37 9 -42 -6 -6 -20 9 -35 36 l-26 46 22 14 c12 7 38 23
57 34 39 24 64 28 58 10z m-1399 -114 c-12 -20 -35 -68 -50 -108 -16 -39 -28
-63 -29 -53 0 34 79 197 96 197 3 0 -4 -16 -17 -36z m-91 10 c26 -7 24 -31 -2
-26 -24 4 -44 -44 -28 -68 25 -41 -11 -31 -61 16 -28 27 -53 50 -56 51 -2 1
-1 9 2 18 5 11 21 15 64 15 32 0 68 -3 81 -6z m1562 -24 c0 -8 -121 -60 -141
-60 -29 0 4 27 62 51 62 25 79 27 79 9z m20 -63 c0 -7 -24 -27 -52 -44 l-53
-32 62 -1 c56 0 85 -12 69 -27 -11 -12 -161 11 -161 25 0 11 111 92 128 92 4
0 7 -6 7 -13z m-1504 -59 c-18 -26 -22 -17 -5 14 6 11 13 17 16 15 3 -3 -2
-16 -11 -29z m-206 7 c7 -9 20 -13 27 -10 21 7 64 -6 60 -18 -2 -6 -17 -11
-33 -12 -24 0 -30 -5 -32 -27 -3 -22 1 -28 17 -28 20 0 38 -17 28 -27 -3 -3
-38 1 -77 8 -65 11 -71 14 -66 33 3 12 6 29 6 39 0 18 33 57 49 57 5 0 14 -7
21 -15z m1454 -59 c12 4 24 12 28 18 5 7 8 4 8 -6 0 -10 -4 -18 -10 -18 -18 0
-11 -35 10 -48 25 -15 28 -79 5 -88 -8 -4 -15 -14 -15 -24 0 -10 7 -20 15 -24
10 -3 15 -17 14 -38 l-1 -33 -7 30 c-4 21 -12 30 -26 30 -16 0 -21 -8 -23 -38
-3 -36 -2 -37 22 -33 14 3 26 0 26 -5 0 -5 -7 -9 -15 -9 -17 0 -21 -35 -5 -45
6 -3 10 -11 10 -17 0 -7 -4 -7 -13 1 -8 6 -17 8 -20 4 -4 -3 -7 -1 -7 7 0 10
-3 10 -15 0 -12 -10 -15 -10 -15 0 0 6 9 14 20 17 21 6 27 28 10 38 -16 10
-12 85 5 91 8 4 15 14 15 24 0 10 -7 20 -15 24 -17 6 -22 86 -5 86 6 0 10 9
10 20 0 11 -7 20 -15 20 -14 0 -36 30 -34 47 0 4 5 -2 11 -15 8 -17 17 -21 32
-16z m-1240 0 c12 -4 23 -2 28 6 6 10 8 10 8 0 0 -8 -9 -16 -20 -19 -20 -5
-29 -43 -10 -43 17 0 12 -80 -5 -86 -8 -4 -15 -14 -15 -24 0 -10 7 -20 15 -24
17 -6 21 -81 5 -91 -15 -10 -12 -35 5 -35 8 0 15 -2 15 -4 0 -2 3 -13 6 -23 6
-16 5 -16 -9 2 -10 12 -16 15 -17 7 0 -7 -4 -11 -9 -7 -6 3 -14 -3 -20 -12 -6
-10 -11 -12 -11 -5 0 7 5 21 12 32 11 16 9 23 -10 40 -26 25 -31 87 -7 96 8 4
15 12 15 19 0 7 -7 18 -15 25 -22 19 -19 77 5 92 21 13 28 48 10 48 -5 0 -10
8 -10 18 0 10 3 13 8 6 4 -6 16 -14 26 -18z m1527 -51 c0 -13 -140 -35 -147
-23 -9 15 4 22 54 29 60 9 93 7 93 -6z m-1781 -64 c0 -5 -7 -14 -15 -21 -34
-28 -5 -80 45 -80 33 0 60 31 53 60 -7 27 -30 32 -36 8 -7 -26 -27 -14 -27 18
0 21 4 24 38 24 29 0 38 -4 39 -17 1 -10 5 -30 8 -45 6 -21 1 -32 -18 -52 -32
-32 -74 -34 -111 -5 -31 24 -35 72 -9 101 17 19 33 24 33 9z m1722 -17 c94
-36 92 -54 -7 -87 -61 -21 -75 -23 -75 -11 0 8 7 17 15 20 9 4 15 19 15 40 0
24 -5 34 -15 34 -8 0 -15 7 -15 15 0 20 3 19 82 -11z m-251 -269 c5 4 9 1 9
-6 0 -18 30 10 31 30 0 9 3 11 5 4 8 -18 -16 -55 -31 -49 -19 7 -28 -23 -13
-42 11 -14 10 -15 -7 -7 -11 4 -28 8 -37 9 -13 0 -14 4 -6 13 6 7 14 11 18 8
11 -7 18 14 15 50 -1 17 0 20 2 7 2 -12 9 -20 14 -17z m-1173 -2 c-2 -24 1
-38 9 -38 7 0 16 -4 22 -10 7 -7 2 -10 -15 -11 -34 -2 -37 -7 -23 -37 13 -29
49 -33 61 -7 5 9 7 3 5 -15 -2 -26 1 -30 20 -27 12 2 24 -2 28 -8 3 -6 -3 -10
-15 -10 -31 0 -36 -28 -10 -53 16 -16 24 -18 27 -9 3 6 9 10 14 6 14 -8 11 20
-3 36 -11 12 -10 12 5 0 10 -7 17 -20 15 -29 -4 -25 10 -40 32 -34 25 7 81
-33 78 -55 -2 -14 4 -17 32 -15 28 2 31 0 15 -7 -11 -5 -15 -9 -10 -9 6 -1 3
-6 -5 -11 -13 -9 -12 -12 4 -25 11 -8 27 -15 37 -15 19 0 33 26 22 42 -3 7 -1
8 5 4 7 -4 12 -13 12 -21 0 -7 11 -16 24 -19 14 -3 23 -13 22 -23 0 -10 9 -20
24 -24 23 -6 23 -7 3 -8 -13 -1 -30 10 -42 27 -17 23 -23 25 -38 16 -27 -17
-80 7 -93 42 -9 22 -14 25 -36 20 -24 -6 -25 -6 -10 9 9 9 16 21 16 27 0 13
-30 37 -46 38 -21 0 -25 -32 -7 -53 18 -20 18 -20 -10 -2 -15 10 -26 24 -23
31 5 14 -27 47 -37 37 -11 -11 -59 40 -54 58 2 9 -4 27 -15 40 -11 13 -16 18
-12 10 4 -9 2 -12 -7 -9 -20 6 -57 80 -43 85 7 2 10 12 7 23 -3 10 -11 16 -18
14 -8 -3 -18 4 -24 15 -17 31 -13 36 9 10 11 -14 19 -18 20 -11 0 7 5 10 10 7
6 -3 10 3 10 14 0 12 2 21 5 21 3 0 5 -17 3 -37z m1158 -118 c-16 -25 -43 -36
-31 -12 4 6 -2 1 -13 -12 -11 -14 -18 -31 -15 -38 7 -17 -36 -65 -52 -59 -14
5 -49 -20 -42 -31 7 -11 -1 -23 -28 -43 -19 -14 -20 -14 -2 6 18 22 14 54 -7
54 -16 -1 -46 -25 -46 -38 0 -6 8 -18 18 -28 16 -17 16 -17 -6 -11 -28 7 -54
-1 -46 -14 7 -11 -14 -39 -28 -39 -5 0 -2 7 7 16 13 14 14 19 3 25 -7 5 -8 9
-3 10 6 0 1 5 -10 10 -18 9 -18 9 3 5 31 -6 52 2 46 19 -7 17 52 59 73 51 20
-8 44 11 36 29 -8 23 35 75 60 72 19 -2 22 3 20 28 -2 18 0 24 5 15 11 -24 50
-23 57 1 4 11 9 18 12 15 3 -3 -2 -17 -11 -31z m-340 -218 c-20 -15 -12 -47
13 -47 13 0 13 -2 2 -9 -9 -6 -21 -5 -33 2 -16 10 -22 8 -39 -13 -10 -14 -17
-18 -14 -10 7 21 -6 37 -35 43 -21 4 -20 4 8 6 17 0 32 -3 32 -8 0 -5 9 -7 20
-4 11 3 18 9 15 13 -6 10 22 40 38 40 6 0 3 -6 -7 -13z m-368 -34 c-10 -2 -26
-2 -35 0 -10 3 -2 5 17 5 19 0 27 -2 18 -5z m42 -18 c0 -8 9 -15 20 -15 11 0
20 5 20 10 0 6 4 10 8 10 5 0 8 -10 7 -22 -1 -13 3 -26 9 -30 7 -5 4 -8 -6 -8
-10 0 -18 4 -18 9 0 15 -32 22 -47 10 -7 -7 -16 -9 -20 -5 -3 3 -1 6 4 6 6 0
10 11 8 25 -1 14 2 25 6 25 5 0 9 -7 9 -15z m185 -7 c-1 -13 3 -26 9 -30 7 -5
4 -8 -6 -8 -10 0 -18 5 -18 10 0 16 -27 12 -34 -5 -3 -8 -11 -15 -17 -15 -8 0
-9 4 0 13 6 8 8 17 4 20 -3 4 6 7 20 7 17 0 27 5 27 15 0 8 4 15 8 15 5 0 8
-10 7 -22z m52 -34 c-3 -3 -12 -4 -19 -1 -8 3 -5 6 6 6 11 1 17 -2 13 -5z
m-311 -101 c-3 -10 -10 -38 -16 -63 -17 -70 -19 -75 -31 -63 -7 7 -7 24 1 54
10 37 10 45 -3 53 -13 9 -12 12 6 22 33 18 49 17 43 -3z m368 -5 c20 -28 21
-102 2 -118 -18 -14 -58 -10 -63 7 -3 8 6 11 24 10 22 -2 29 3 31 21 3 21 1
22 -16 11 -25 -16 -49 -6 -64 26 -23 51 53 90 86 43z m-248 -2 c14 -11 19 -26
18 -60 -1 -73 -49 -109 -90 -69 -21 21 -1 31 22 12 14 -11 18 -10 30 6 20 27
18 32 -15 27 -36 -5 -56 24 -42 61 14 37 45 46 77 23z m134 -15 c14 -27 14
-26 -21 -66 l-31 -35 31 0 c36 0 41 -15 9 -24 -35 -9 -78 -7 -78 4 0 5 16 28
36 50 22 24 34 46 30 55 -7 19 -35 19 -42 0 -8 -21 -24 -19 -24 3 0 26 9 32
46 32 23 0 37 -6 44 -19z"/>
<path d="M966 1878 c-9 -35 -8 -38 15 -38 16 0 19 4 14 23 -11 35 -22 41 -29
15z"/>
<path d="M1175 1888 c-13 -41 -22 -87 -17 -92 13 -14 52 -4 66 16 27 38 18 70
-22 82 -14 5 -24 3 -27 -6z"/>
<path d="M553 1793 c-34 -13 2 -103 41 -103 20 0 46 39 39 59 -15 41 -46 58
-80 44z"/>
<path d="M1531 1727 c-14 -18 21 -52 44 -43 20 7 16 25 -12 43 -17 11 -22 11
-32 0z"/>
<path d="M1489 1674 c-11 -14 -9 -19 11 -35 30 -23 39 -23 47 -4 5 15 -22 55
-37 55 -4 0 -14 -7 -21 -16z"/>
<path d="M522 1467 c-22 -23 -31 -54 -13 -43 5 4 11 0 14 -6 3 -10 10 -8 26 6
22 20 28 46 10 46 -5 0 -7 5 -4 10 12 19 -12 10 -33 -13z"/>
<path d="M1240 1620 c-9 -16 -6 -22 21 -35 33 -18 41 -15 46 14 1 11 -7 22
-23 30 -32 14 -31 14 -44 -9z"/>
<path d="M1475 1480 c3 -5 1 -10 -4 -10 -18 0 -12 -26 10 -46 16 -14 23 -16
26 -6 3 6 9 10 14 6 19 -11 8 24 -14 44 -24 23 -43 30 -32 12z"/>
<path d="M1632 1589 c-15 -14 -22 -30 -20 -47 2 -22 9 -28 34 -30 25 -2 37 3
53 24 19 24 20 30 8 48 -19 29 -48 31 -75 5z"/>
<path d="M913 1579 c-132 -22 -270 -108 -354 -220 -173 -229 -150 -542 56
-745 112 -111 241 -164 400 -164 424 0 694 445 502 830 -46 93 -151 197 -247
244 -120 58 -233 76 -357 55z m12 -118 c-4 -24 -2 -42 4 -46 6 -3 11 -19 11
-34 0 -35 47 -79 92 -85 18 -3 42 -6 53 -8 11 -2 26 -9 33 -15 7 -7 22 -13 31
-13 10 0 24 -7 31 -15 7 -8 25 -15 41 -15 46 0 79 -20 81 -49 2 -37 6 -71 14
-108 l6 -33 63 0 64 0 -1 -29 c-1 -20 9 -42 30 -65 26 -30 30 -40 22 -65 -4
-16 -6 -32 -3 -34 2 -3 -3 -16 -11 -30 -10 -14 -14 -32 -9 -42 5 -16 3 -15
-15 3 -31 31 -65 36 -146 22 -39 -6 -77 -13 -85 -13 -8 -1 -14 -18 -16 -45 -2
-24 -10 -53 -18 -65 -8 -12 -17 -36 -21 -52 -6 -29 -8 -30 -56 -27 -49 4 -50
3 -57 -28 l-6 -33 -17 23 c-11 15 -29 23 -56 24 -21 2 -47 7 -57 11 -13 6 -26
-1 -50 -28 -31 -34 -59 -49 -65 -35 -1 4 -21 43 -43 87 -38 75 -42 98 -25 141
4 10 -2 19 -16 25 -13 6 -25 22 -29 41 -3 17 -14 45 -25 62 -16 28 -17 35 -5
54 24 38 25 76 1 83 -11 3 -25 15 -31 26 -9 17 -7 20 8 17 13 -2 17 2 15 19
-2 12 4 32 12 45 11 17 13 34 6 68 -5 26 -4 52 1 62 14 26 12 31 -27 82 -35
46 -35 48 -13 46 53 -5 77 1 103 25 15 14 31 25 36 25 5 0 21 11 37 24 16 14
45 26 64 29 18 2 38 5 42 5 5 1 6 -16 2 -37z"/>
<path d="M784 1009 c-3 -6 -1 -16 5 -22 6 -6 11 -8 11 -4 0 18 59 -25 62 -45
3 -22 38 -40 38 -19 0 6 -8 7 -17 4 -12 -5 -15 -2 -10 10 4 11 -1 25 -13 37
-11 11 -20 25 -20 32 0 7 23 -10 50 -37 46 -45 48 -50 30 -57 -22 -8 -26 -23
-10 -33 6 -3 10 2 10 11 0 16 2 16 19 -2 12 -13 15 -22 7 -27 -7 -6 -4 -7 7
-3 9 3 17 0 17 -6 0 -6 3 -8 6 -5 4 4 -2 19 -12 34 -10 15 -19 31 -19 35 0 4
-21 28 -46 55 -34 35 -55 49 -77 50 -17 1 -34 -3 -38 -8z m47 -16 c13 -15 12
-15 -8 -4 -24 12 -29 21 -14 21 5 0 15 -7 22 -17z"/>
<path d="M1137 1002 c-22 -25 -21 -31 4 -25 13 4 17 8 9 13 -8 5 -7 9 4 13 11
4 16 1 16 -10 0 -13 3 -14 11 -6 13 13 4 33 -15 33 -7 0 -20 -8 -29 -18z"/>
<path d="M1096 995 c-11 -8 -17 -17 -14 -20 2 -3 13 4 23 15 21 23 18 25 -9 5z"/>
<path d="M1090 951 c0 -5 6 -11 13 -14 7 -3 2 -9 -13 -15 -14 -6 -18 -11 -9
-11 21 -1 39 18 32 35 -6 16 -23 19 -23 5z"/>
<path d="M1134 918 l-19 -23 23 19 c21 18 27 26 19 26 -2 0 -12 -10 -23 -22z"/>
<path d="M1011 884 c-11 -15 -21 -30 -21 -35 0 -9 39 -3 49 7 3 4 -2 4 -11 1
-23 -8 -23 -1 2 25 17 19 20 19 20 5 0 -9 5 -17 11 -17 17 0 6 34 -12 38 -9 2
-26 -9 -38 -24z"/>
<path d="M810 829 c-7 -11 -10 -23 -7 -25 2 -2 9 7 15 21 14 30 7 33 -8 4z"/>
<path d="M1029 813 l-24 -28 28 24 c25 23 32 31 24 31 -2 0 -14 -12 -28 -27z"/>
<path d="M1170 825 c0 -5 5 -17 10 -25 5 -8 10 -10 10 -5 0 6 -5 17 -10 25 -5
8 -10 11 -10 5z"/>
<path d="M200 1359 c0 -4 10 -15 22 -23 17 -12 24 -13 30 -3 13 20 9 25 -22
29 -16 3 -30 1 -30 -3z"/>
<path d="M141 1216 c-18 -21 -9 -51 14 -51 15 0 20 7 20 29 0 33 -16 44 -34
22z"/>
<path d="M1648 1122 c-13 -2 -18 -13 -18 -38 0 -29 3 -33 23 -30 13 2 23 11
25 24 4 29 -9 49 -30 44z"/>
<path d="M356 1122 c-3 -3 -6 -20 -6 -37 0 -28 4 -32 25 -32 22 0 25 4 25 32
0 24 -5 34 -19 38 -11 3 -22 2 -25 -1z"/>
<path d="M354 975 c-11 -28 1 -58 24 -62 21 -3 23 0 20 34 -2 26 -8 37 -21 39
-10 1 -21 -4 -23 -11z"/>
<path d="M1840 1010 c0 -14 5 -18 18 -14 48 16 48 16 27 24 -33 14 -45 11 -45
-10z"/>
<path d="M1472 600 c-14 -23 -16 -44 -3 -36 5 4 11 0 14 -6 3 -10 10 -8 26 6
25 23 27 42 5 50 -24 9 -28 8 -42 -14z"/>
<path d="M1164 236 c-9 -24 4 -48 23 -44 12 2 18 12 18 28 0 29 -32 41 -41 16z"/>
<path d="M930 225 c-16 -19 -5 -47 17 -43 22 4 29 43 9 51 -8 3 -20 -1 -26 -8z"/>
</g>
</svg>
